<svg width="81" height="26" viewBox="0 0 81 26" fill="none" xmlns="http://www.w3.org/2000/svg">
<path d="M28.5 0.5H80.5V25.5H28.5V0.5Z" fill="white" stroke="#25405D"/>
<path fill-rule="evenodd" clip-rule="evenodd" d="M16.2939 12.9134C15.9541 13.5335 15.2943 13.9435 14.5446 13.9435H7.09736L5.99777 15.9435H17.9933V17.9436H5.99777C4.47834 17.9436 3.51869 16.3136 4.24842 14.9735L5.59792 12.5334L1.99926 4.94315H0V2.94308H3.26879L4.20844 4.94315H19.0029C19.7627 4.94315 20.2425 5.76318 19.8726 6.42321L16.2939 12.9134ZM17.3037 6.94255H5.1582L7.52733 11.9419H14.5447L17.3037 6.94255ZM5.99781 18.9436C4.89822 18.9436 4.00854 19.8435 4.00854 20.9433C4.00854 22.0432 4.89822 22.9431 5.99781 22.9431C7.0974 22.9431 7.99707 22.0432 7.99707 20.9433C7.99707 19.8435 7.0974 18.9436 5.99781 18.9436ZM14.0049 20.9433C14.0049 19.8435 14.8946 18.9436 15.9941 18.9436C17.0937 18.9436 17.9934 19.8435 17.9934 20.9433C17.9934 22.0432 17.0937 22.9431 15.9941 22.9431C14.8946 22.9431 14.0049 22.0432 14.0049 20.9433Z" fill="#25405D"/>
</svg>
