<svg width="125" height="76" viewBox="0 0 125 76" fill="none" xmlns="http://www.w3.org/2000/svg">
<path fill-rule="evenodd" clip-rule="evenodd" d="M121.507 45.6884C123.691 42.675 124.458 39.8368 123.714 37.3134C122.97 34.79 120.744 32.6805 117.194 31.0633C113.649 29.4481 108.856 28.3604 103.133 27.8504C91.6916 26.8311 76.6509 28.1305 60.7326 32.0064C44.8144 35.8823 31.0737 41.5909 21.7265 47.6719C17.0508 50.7138 13.4981 53.8337 11.3164 56.8434C9.13202 59.8568 8.36517 62.695 9.10925 65.2184C9.85333 67.7419 12.0791 69.8513 15.6289 71.4686C19.1743 73.0837 23.9676 74.1714 29.6906 74.6814C41.1316 75.7007 56.1723 74.4013 72.0906 70.5254C88.0088 66.6495 101.749 60.9409 111.097 54.8599C115.772 51.818 119.325 48.6981 121.507 45.6884ZM111.68 55.6868C102.219 61.8419 88.3691 67.587 72.3726 71.482C56.3762 75.3769 41.2207 76.6943 29.6405 75.6625C23.8529 75.1468 18.9295 74.042 15.2339 72.3584C11.5429 70.6768 9.00352 68.3813 8.14045 65.4543C7.27738 62.5273 8.21346 59.3855 10.4848 56.2522C12.7588 53.1151 16.4148 49.9212 21.1432 46.845C30.6042 40.6899 44.4541 34.9448 60.4506 31.0498C76.447 27.1549 91.6025 25.8375 103.183 26.8693C108.97 27.385 113.894 28.4898 117.589 30.1734C121.28 31.855 123.82 34.1505 124.683 37.0775C125.546 40.0045 124.61 43.1463 122.338 46.2796C120.064 49.4167 116.408 52.6106 111.68 55.6868Z" fill="#E87877"/>
<path fill-rule="evenodd" clip-rule="evenodd" d="M118.899 36.8449C121.083 33.8314 121.85 30.9933 121.106 28.4698C120.362 25.9463 118.136 23.8368 114.587 22.2196C111.041 20.6044 106.248 19.5167 100.525 19.0068C89.0839 17.9874 74.0431 19.2868 58.1249 23.1628C42.2066 27.0387 28.466 32.7473 19.1187 38.8284C14.443 41.8703 10.8904 44.9902 8.7087 47.9999C6.52428 51.0134 5.75743 53.8515 6.5015 56.375C7.24558 58.8985 9.47132 61.0079 13.0212 62.6252C16.5666 64.2404 21.3599 65.3281 27.0829 65.838C38.5238 66.8574 53.5646 65.558 69.4828 61.682C85.4011 57.8061 99.1417 52.0975 108.489 46.0164C113.165 42.9745 116.717 39.8546 118.899 36.8449ZM109.072 46.8433C99.6113 52.9984 85.7614 58.7436 69.7649 62.6386C53.7684 66.5336 38.6129 67.851 27.0327 66.8192C21.2452 66.3035 16.3217 65.1986 12.6262 63.515C8.93512 61.8334 6.39578 59.5379 5.53271 56.6109C4.66964 53.6839 5.60571 50.5421 7.87703 47.4087C10.1511 44.2716 13.807 41.0777 18.5354 38.0015C27.9965 31.8464 41.8463 26.1012 57.8428 22.2062C73.8393 18.3112 88.9948 16.9938 100.575 18.0256C106.363 18.5413 111.286 19.6462 114.982 21.3298C118.673 23.0113 121.212 25.3069 122.075 28.2339C122.938 31.1609 122.002 34.3027 119.731 37.436C117.457 40.5732 113.801 43.7671 109.072 46.8433Z" fill="#E87877"/>
<path fill-rule="evenodd" clip-rule="evenodd" d="M116.291 28.0009C118.476 24.9875 119.243 22.1493 118.498 19.6258C117.754 17.1024 115.529 14.9929 111.979 13.3756C108.433 11.7604 103.64 10.6727 97.9171 10.1628C86.4762 9.14342 71.4354 10.4429 55.5172 14.3188C39.5989 18.1948 25.8582 23.9033 16.511 29.9844C11.8353 33.0264 8.28266 36.1462 6.10097 39.1559C3.91654 42.1694 3.14969 45.0076 3.89377 47.531C4.63785 50.0545 6.86358 52.164 10.4134 53.7812C13.9589 55.3964 18.7522 56.4841 24.4752 56.9941C35.9161 58.0135 50.9568 56.714 66.8751 52.8381C82.7934 48.9621 96.534 43.2536 105.881 37.1724C110.557 34.1305 114.11 31.0107 116.291 28.0009ZM106.465 37.9993C97.0035 44.1545 83.1537 49.8997 67.1572 53.7947C51.1607 57.6897 36.0052 59.007 24.425 57.9752C18.6375 57.4595 13.714 56.3546 10.0185 54.671C6.3274 52.9895 3.78805 50.6939 2.92498 47.7669C2.0619 44.8399 2.99798 41.6981 5.2693 38.5648C7.54336 35.4277 11.1993 32.2338 15.9277 29.1575C25.3887 23.0024 39.2386 17.2572 55.2351 13.3622C71.2316 9.46722 86.3871 8.14987 97.9672 9.18167C103.755 9.69734 108.678 10.8022 112.374 12.4858C116.065 14.1674 118.604 16.4629 119.467 19.3899C120.33 22.317 119.394 25.4587 117.123 28.5921C114.849 31.7292 111.193 34.9231 106.465 37.9993Z" fill="#E87877"/>
<path fill-rule="evenodd" clip-rule="evenodd" d="M113.684 19.1569C115.868 16.1434 116.635 13.3052 115.891 10.7818C115.147 8.25827 112.921 6.14876 109.371 4.53151C105.826 2.91629 101.032 1.82858 95.3093 1.31865C83.8684 0.299255 68.8277 1.5987 52.9094 5.47468C36.9912 9.35066 23.2505 15.0593 13.9033 21.1404C9.22755 24.1824 5.67491 27.3023 3.49323 30.312C1.3088 33.3255 0.541951 36.1637 1.28603 38.6872C2.03011 41.2106 4.25585 43.3201 7.80572 44.9374C11.3511 46.5526 16.1444 47.6403 21.8674 48.1502C33.3084 49.1696 48.3491 47.8702 64.2674 43.9942C80.1856 40.1182 93.9263 34.4096 103.274 28.3285C107.949 25.2865 111.502 22.1666 113.684 19.1569ZM103.857 29.1554C94.3958 35.3106 80.5459 41.0558 64.5494 44.9508C48.5529 48.8458 33.3975 50.1632 21.8173 49.1314C16.0297 48.6157 11.1062 47.5108 7.41071 45.8272C3.71965 44.1456 1.18031 41.8501 0.317236 38.923C-0.545834 35.996 0.390246 32.8542 2.66156 29.7208C4.93562 26.5837 8.59155 23.3898 13.32 20.3135C22.781 14.1584 36.6309 8.41312 52.6273 4.51809C68.6238 0.623067 83.7793 -0.694293 95.3595 0.33751C101.147 0.853184 106.071 1.95808 109.766 3.64169C113.457 5.32327 115.996 7.61883 116.86 10.5459C117.723 13.4729 116.787 16.6147 114.515 19.7481C112.241 22.8852 108.585 26.0791 103.857 29.1554Z" fill="#E87877"/>
</svg>
