<svg width="192" height="27" viewBox="0 0 192 27" fill="none" xmlns="http://www.w3.org/2000/svg">
<path d="M16.865 6.12H3.95V11.965H15.43V16.235H3.95V26H0.625V1.85H16.865V6.12ZM20.2709 26V0.799999H23.3859V26H20.2709ZM36.4655 26.42C33.7355 26.42 31.4605 25.5333 29.6405 23.76C27.8205 21.9633 26.9105 19.735 26.9105 17.075C26.9105 14.415 27.8205 12.1983 29.6405 10.425C31.4605 8.62833 33.7355 7.73 36.4655 7.73C39.1722 7.73 41.4355 8.62833 43.2555 10.425C45.0989 12.1983 46.0205 14.415 46.0205 17.075C46.0205 19.735 45.0989 21.9633 43.2555 23.76C41.4355 25.5333 39.1722 26.42 36.4655 26.42ZM31.9155 20.82C33.1289 21.8 34.6455 22.29 36.4655 22.29C38.2855 22.29 39.7905 21.8 40.9805 20.82C42.1939 19.8167 42.8005 18.5683 42.8005 17.075C42.8005 15.5817 42.1939 14.345 40.9805 13.365C39.7905 12.3617 38.2855 11.86 36.4655 11.86C34.6455 11.86 33.1289 12.3617 31.9155 13.365C30.7255 14.345 30.1305 15.5817 30.1305 17.075C30.1305 18.5683 30.7255 19.8167 31.9155 20.82ZM52.7367 26L46.7167 8.15H49.9017L54.3467 20.435H55.0467L59.0717 8.15H62.0817L66.1417 20.435H66.8067L71.2517 8.15H74.7517L68.7317 26H64.9517L61.1717 13.96H60.2967L56.4817 26H52.7367ZM94.5899 17.145C94.5899 17.5183 94.5666 17.9617 94.5199 18.475H78.7699C79.0965 19.6417 79.8315 20.5867 80.9749 21.31C82.1415 22.01 83.5415 22.36 85.1749 22.36C87.5315 22.36 89.3399 21.8117 90.5999 20.715H94.2399C93.4932 22.4417 92.3032 23.83 90.6699 24.88C89.0366 25.9067 87.1699 26.42 85.0699 26.42C82.3165 26.42 80.0299 25.5333 78.2099 23.76C76.3899 21.9633 75.4799 19.735 75.4799 17.075C75.4799 14.415 76.3899 12.1983 78.2099 10.425C80.0299 8.62833 82.3049 7.73 85.0349 7.73C87.7649 7.73 90.0399 8.62833 91.8599 10.425C93.6799 12.1983 94.5899 14.4383 94.5899 17.145ZM85.0349 11.79C83.4949 11.79 82.1532 12.14 81.0099 12.84C79.8899 13.54 79.1432 14.4733 78.7699 15.64H91.3699C91.0199 14.4733 90.2616 13.54 89.0949 12.84C87.9516 12.14 86.5982 11.79 85.0349 11.79ZM113.708 26L107.898 17.845H101.738V26H98.4131V1.85H109.333C111.666 1.85 113.615 2.62 115.178 4.16C116.741 5.67667 117.523 7.57833 117.523 9.865C117.523 11.7083 116.998 13.3183 115.948 14.695C114.898 16.0717 113.521 17.005 111.818 17.495L117.803 26H113.708ZM101.738 6.12V13.575H109.228C110.675 13.575 111.841 13.2367 112.728 12.56C113.638 11.86 114.093 10.9617 114.093 9.865C114.093 8.745 113.638 7.84667 112.728 7.17C111.841 6.47 110.675 6.12 109.228 6.12H101.738ZM129.127 26.42C126.397 26.42 124.122 25.5333 122.302 23.76C120.482 21.9633 119.572 19.735 119.572 17.075C119.572 14.415 120.482 12.1983 122.302 10.425C124.122 8.62833 126.397 7.73 129.127 7.73C131.833 7.73 134.097 8.62833 135.917 10.425C137.76 12.1983 138.682 14.415 138.682 17.075C138.682 19.735 137.76 21.9633 135.917 23.76C134.097 25.5333 131.833 26.42 129.127 26.42ZM124.577 20.82C125.79 21.8 127.307 22.29 129.127 22.29C130.947 22.29 132.452 21.8 133.642 20.82C134.855 19.8167 135.462 18.5683 135.462 17.075C135.462 15.5817 134.855 14.345 133.642 13.365C132.452 12.3617 130.947 11.86 129.127 11.86C127.307 11.86 125.79 12.3617 124.577 13.365C123.387 14.345 122.792 15.5817 122.792 17.075C122.792 18.5683 123.387 19.8167 124.577 20.82ZM150.694 26.42C147.964 26.42 145.689 25.5333 143.869 23.76C142.049 21.9633 141.139 19.735 141.139 17.075C141.139 14.415 142.049 12.1983 143.869 10.425C145.689 8.62833 147.964 7.73 150.694 7.73C153.401 7.73 155.664 8.62833 157.484 10.425C159.327 12.1983 160.249 14.415 160.249 17.075C160.249 19.735 159.327 21.9633 157.484 23.76C155.664 25.5333 153.401 26.42 150.694 26.42ZM146.144 20.82C147.357 21.8 148.874 22.29 150.694 22.29C152.514 22.29 154.019 21.8 155.209 20.82C156.422 19.8167 157.029 18.5683 157.029 17.075C157.029 15.5817 156.422 14.345 155.209 13.365C154.019 12.3617 152.514 11.86 150.694 11.86C148.874 11.86 147.357 12.3617 146.144 13.365C144.954 14.345 144.359 15.5817 144.359 17.075C144.359 18.5683 144.954 19.8167 146.144 20.82ZM185.246 7.73C187.136 7.73 188.653 8.33667 189.796 9.55C190.94 10.74 191.511 12.3267 191.511 14.31V26H188.431V15.43C188.431 14.3567 188.023 13.4933 187.206 12.84C186.39 12.1867 185.305 11.86 183.951 11.86C182.528 11.86 181.385 12.1983 180.521 12.875C179.658 13.5283 179.226 14.4033 179.226 15.5V26H176.111V15.43C176.111 14.3567 175.703 13.4933 174.886 12.84C174.07 12.1867 172.996 11.86 171.666 11.86C170.243 11.86 169.088 12.1983 168.201 12.875C167.338 13.5283 166.906 14.4033 166.906 15.5V26H163.791V8.15H166.906V11.65C168.166 9.03667 170.173 7.73 172.926 7.73C174.396 7.73 175.656 8.10333 176.706 8.85C177.756 9.59667 178.48 10.6233 178.876 11.93C180.16 9.13 182.283 7.73 185.246 7.73Z" fill="#25405D"/>
</svg>
