<svg width="35" height="35" viewBox="0 0 35 35" fill="none" xmlns="http://www.w3.org/2000/svg">
<path fill-rule="evenodd" clip-rule="evenodd" d="M0 17.5C0 24.9128 4.61234 31.246 11.1213 33.7962C10.9683 32.4125 10.8318 30.2884 11.1834 28.7744C11.4998 27.4093 13.2351 20.0771 13.2351 20.0771C13.2351 20.0771 12.7119 19.0285 12.7119 17.4793C12.7119 15.0449 14.1204 13.2289 15.8784 13.2289C17.3697 13.2289 18.0915 14.35 18.0915 15.6944C18.0915 17.196 17.136 19.4401 16.6417 21.5208C16.2301 23.2644 17.5165 24.6833 19.2332 24.6833C22.344 24.6833 24.735 21.4029 24.735 16.6685C24.735 12.4781 21.7256 9.5494 17.4255 9.5494C12.4471 9.5494 9.52458 13.2848 9.52458 17.1442C9.52458 18.6479 10.1016 20.2612 10.8256 21.1382C10.9683 21.3119 10.989 21.4629 10.9476 21.6408C10.8152 22.193 10.5194 23.3823 10.4615 23.6243C10.385 23.9449 10.2071 24.0131 9.87413 23.8601C7.68999 22.8425 6.3249 19.6448 6.3249 17.0801C6.3249 11.5598 10.3354 6.4883 17.8868 6.4883C23.9573 6.4883 28.6751 10.8152 28.6751 16.5961C28.6751 22.6273 24.8715 27.4817 19.5952 27.4817C17.8206 27.4817 16.1535 26.5592 15.5827 25.4713C15.5827 25.4713 14.7057 28.8116 14.4927 29.6307C14.0976 31.1509 13.0304 33.0558 12.3189 34.2182C13.9549 34.727 15.6944 35 17.5 35C27.1652 35 35 27.1652 35 17.5C35 7.8327 27.1652 0 17.5 0C7.83477 0 0 7.8327 0 17.5Z" fill="white"/>
</svg>
