<svg width="18" height="18" viewBox="0 0 18 18" fill="none" xmlns="http://www.w3.org/2000/svg">
<path fill-rule="evenodd" clip-rule="evenodd" d="M14.6646 8.97332C14.3587 9.53133 13.7649 9.90035 13.0901 9.90035H6.38763L5.398 11.7004H16.194V13.5005H5.398C4.0305 13.5005 3.16682 12.0334 3.82358 10.8274L5.03813 8.6313L1.79933 1.80006H0V0H2.94191L3.78759 1.80006H17.1026C17.7864 1.80006 18.2182 2.53809 17.8854 3.13211L14.6646 8.97332ZM15.5733 3.59956H4.64238L6.77459 8.09895H13.0903L15.5733 3.59956ZM5.39803 14.4004C4.40839 14.4004 3.60769 15.2103 3.60769 16.2002C3.60769 17.1901 4.40839 18 5.39803 18C6.38766 18 7.19736 17.1901 7.19736 16.2002C7.19736 15.2103 6.38766 14.4004 5.39803 14.4004ZM12.6044 16.2002C12.6044 15.2103 13.4051 14.4004 14.3947 14.4004C15.3844 14.4004 16.1941 15.2103 16.1941 16.2002C16.1941 17.1901 15.3844 18 14.3947 18C13.4051 18 12.6044 17.1901 12.6044 16.2002Z" fill="#25405D"/>
</svg>
