<svg width="111" height="111" viewBox="0 0 111 111" fill="none" xmlns="http://www.w3.org/2000/svg">
<path d="M15.5954 16.7826L16.5281 15.646L27.1256 24.3456L26.1929 25.4822L21.6774 21.7754L16.3837 28.2265L20.8991 31.9333L19.9664 33.0699L9.3689 24.3703L10.3016 23.2337L14.7556 26.89L20.0494 20.439L15.5954 16.7826Z" fill="#25405D"/>
<path d="M40.1891 16.1244L37.3757 14.0461L30.8691 17.8787L31.3196 21.3489L29.8642 22.2062L27.7419 7.54586L29.7795 6.34564L41.5417 15.3276L40.1891 16.1244ZM30.5809 15.7426L35.632 12.7673L30.2117 8.76581L29.7152 9.0583L30.5809 15.7426Z" fill="#25405D"/>
<path d="M46.2946 0.811054C47.5525 0.547407 48.683 0.743465 49.6862 1.39923C50.6997 2.03931 51.3351 2.97515 51.5923 4.20676C51.8495 5.43837 51.6434 6.55737 50.9738 7.56375C50.3171 8.56742 49.3599 9.20108 48.102 9.46473L43.5115 10.4269L44.5065 15.1913L43.0671 15.493L40.2647 2.07493L46.2946 0.811054ZM47.657 7.52824C48.5258 7.34613 49.1865 6.9776 49.6391 6.42266C50.1019 5.85204 50.2602 5.21669 50.114 4.51662C49.9678 3.81654 49.5698 3.30455 48.9202 2.98064C48.2835 2.65401 47.5307 2.58175 46.6619 2.76385L42.1102 3.71788L43.1053 8.48226L47.657 7.52824Z" fill="#25405D"/>
<path d="M64.2921 0.732969C65.5682 0.885868 66.5765 1.43353 67.3172 2.37594C68.0726 3.30678 68.3751 4.39678 68.2247 5.64593C68.0744 6.89509 67.521 7.8892 66.5646 8.62828C65.6213 9.36893 64.5117 9.66281 63.2356 9.50991L58.5785 8.95191L57.9969 13.7842L56.5366 13.6092L58.1748 0L64.2921 0.732969ZM63.4335 7.53283C64.315 7.63844 65.0588 7.50082 65.6652 7.11996C66.2863 6.72752 66.6396 6.17628 66.725 5.46624C66.8105 4.75619 66.5973 4.14375 66.0854 3.6289C65.5867 3.11564 64.8966 2.8062 64.0152 2.70059L59.3976 2.14731L58.816 6.97956L63.4335 7.53283Z" fill="#25405D"/>
<path d="M70.1307 16.4196L75.1754 3.67345L76.543 4.21424L71.4983 16.9604L70.1307 16.4196Z" fill="#25405D"/>
<path d="M77.0026 19.4277L85.3102 8.52193L86.7801 9.64198L86.5707 22.7716L86.8394 22.9763L93.2446 14.5678L94.4143 15.459L86.1067 26.3648L84.6525 25.2568L84.862 12.1272L84.5775 11.9104L78.1722 20.319L77.0026 19.4277Z" fill="#25405D"/>
<path d="M88.9658 31.2598L94.049 39.077L92.1565 40.3091L86.1626 31.0912L99.2206 22.5901L105.153 31.7134L103.261 32.9454L98.2389 25.2228L94.5486 27.6253L99.164 34.7233L97.3473 35.906L92.7318 28.808L88.9658 31.2598Z" fill="#25405D"/>
<path d="M93.3676 47.2254C92.9383 45.5487 93.0155 44.0294 93.5993 42.6674C94.1868 41.32 95.1295 40.4796 96.4273 40.1463L96.8585 41.8302C96.1586 42.01 95.6725 42.57 95.4003 43.5101C95.1427 44.4464 95.1726 45.5342 95.4899 46.7735C95.7811 47.9107 96.2298 48.8133 96.8359 49.4811C97.4567 50.1452 98.0952 50.393 98.7514 50.2244C99.1597 50.1195 99.4797 49.882 99.7112 49.5117C99.9428 49.1415 100.084 48.6623 100.136 48.0741C100.202 47.4822 100.232 46.9617 100.226 46.5127C100.219 46.0637 100.193 45.5344 100.145 44.925C100.045 43.2572 100.245 41.8849 100.746 40.8082C101.262 39.7278 102.097 39.0397 103.249 38.7437C104.532 38.4141 105.7 38.6658 106.752 39.4986C107.823 40.3424 108.558 41.5443 108.958 43.1043C109.368 44.7081 109.285 46.1435 108.708 47.4105C108.149 48.6883 107.25 49.4864 106.011 49.8048L105.58 48.1209C106.221 47.956 106.664 47.4384 106.907 46.5679C107.154 45.7119 107.132 44.7153 106.841 43.5781C106.568 42.5138 106.144 41.675 105.567 41.0617C105.005 40.4447 104.411 40.2167 103.783 40.3778C102.631 40.6737 102.175 42.3214 102.415 45.321C102.677 49.0762 101.656 51.2497 99.352 51.8416C98.0104 52.1862 96.7802 51.9039 95.6616 50.9948C94.5466 50.1002 93.782 48.8438 93.3676 47.2254Z" fill="#25405D"/>
<path d="M96.8192 59.1557C96.9334 57.637 97.4256 56.3921 98.2958 55.4211C99.1651 54.4633 100.188 54.0282 101.364 54.1159L101.249 55.6413C100.615 55.594 100.052 55.9239 99.5602 56.6309C99.0817 57.339 98.8003 58.2543 98.7159 59.3768C98.6385 60.4069 98.7584 61.2858 99.0758 62.0133C99.4063 62.7418 99.8689 63.1282 100.464 63.1726C100.833 63.2002 101.167 63.0922 101.464 62.8488C101.762 62.6053 102.015 62.2457 102.223 61.7699C102.445 61.295 102.616 60.8695 102.738 60.4934C102.859 60.1174 102.986 59.6686 103.118 59.1473C103.504 57.7284 104.057 56.6408 104.778 55.8845C105.513 55.1291 106.402 54.7904 107.446 54.8682C108.608 54.9549 109.511 55.4937 110.154 56.4845C110.81 57.4896 111.084 58.6987 110.978 60.1118C110.869 61.5645 110.395 62.7377 109.557 63.6315C108.732 64.5394 107.757 64.9515 106.634 64.8677L106.749 63.3424C107.33 63.3857 107.845 63.0788 108.293 62.4216C108.74 61.7776 109.002 60.9406 109.08 59.9105C109.152 58.9464 109.034 58.1275 108.726 57.4538C108.431 56.781 108 56.4235 107.432 56.3811C106.388 56.3033 105.543 57.5485 104.899 60.1167C104.06 63.3212 102.597 64.8456 100.509 64.6899C99.2933 64.5993 98.3471 64.0175 97.6704 62.9444C96.9928 61.8846 96.709 60.6217 96.8192 59.1557Z" fill="#25405D"/>
<path d="M100.146 88.3733C98.9723 89.9765 97.4652 90.9251 95.6246 91.219C93.7947 91.5208 92.0888 91.0926 90.5069 89.9342C88.9251 88.7759 87.9962 87.2749 87.7205 85.4312C87.4554 83.5954 87.9097 81.8759 89.0833 80.2726L92.2051 76.0081L103.268 84.1087L100.146 88.3733ZM90.6983 81.4306C89.7829 82.6811 89.3941 83.9972 89.5321 85.3787C89.6621 86.7709 90.2883 87.8779 91.4106 88.6997C92.5329 89.5215 93.7772 89.7842 95.1435 89.4877C96.502 89.2019 97.6389 88.4337 98.5543 87.1832L100.796 84.1211L92.9399 78.3685L90.6983 81.4306Z" fill="#25405D"/>
<path d="M81.7908 90.5434L74.9604 95.0933L73.8599 93.439L81.9142 88.0739L89.5076 99.4881L81.536 104.798L80.4355 103.144L87.1832 98.6491L85.0373 95.4234L78.8353 99.5546L77.7789 97.9666L83.9808 93.8353L81.7908 90.5434Z" fill="#25405D"/>
<path d="M69.1739 97.1214L62.222 99.049L61.6925 97.1342L70.0617 94.8137L73.7149 108.026L72.2977 108.419L69.1739 97.1214Z" fill="#25405D"/>
<path d="M57.1587 97.2636L57.449 110.968L55.9786 111L55.6883 97.2957L57.1587 97.2636Z" fill="#25405D"/>
<path d="M45.5369 96.095L47.5511 110.675L46.0244 110.309L44.1634 98.2375L43.661 98.1169L36.5162 108.027L34.8348 107.624L43.2758 95.5525L45.5369 96.095Z" fill="#25405D"/>
<path d="M34.3173 93.9035L27.3701 89.5338L28.4279 87.852L36.6198 93.0046L29.3208 104.609L21.213 99.5093L22.2709 97.8275L29.1339 102.144L31.1967 98.8648L24.8887 94.8971L25.9042 93.2826L32.2122 97.2503L34.3173 93.9035Z" fill="#25405D"/>
<path d="M20.033 78.0548L18.4547 83.875L20.9123 86.9469L24.7125 83.9039L25.631 85.052L14.9285 93.6222L11.0806 88.8126C10.278 87.8093 9.94273 86.7117 10.0749 85.5198C10.1885 84.3258 10.7365 83.3355 11.7188 82.5488C12.5668 81.8699 13.5037 81.5353 14.5296 81.5453C15.5369 81.5533 16.4512 81.8903 17.2724 82.5563L18.8911 76.6274L20.033 78.0548ZM15.5611 91.2321L19.3612 88.189L16.4567 84.5585C15.9023 83.8655 15.2755 83.4426 14.5764 83.2897C13.8587 83.1347 13.2206 83.2808 12.6622 83.728C12.1038 84.1751 11.8267 84.7618 11.831 85.4881C11.8269 86.2041 12.1021 86.9086 12.6566 87.6016L15.5611 91.2321Z" fill="#25405D"/>
<path d="M15.1184 72.5227L12.38 64.7882L14.2529 64.1236L17.482 73.2439L4.55879 77.8297L1.3628 68.803L3.23573 68.1384L5.94105 75.7792L9.59328 74.4833L7.10677 67.4605L8.90479 66.8224L11.3913 73.8453L15.1184 72.5227Z" fill="#25405D"/>
<path d="M0.0590469 54.8434C0.081245 52.8569 0.755566 51.2085 2.08201 49.898C3.39521 48.5874 5.03223 47.9424 6.99307 47.9631C8.95392 47.9838 10.5828 48.6632 11.8796 50.0013C13.1632 51.3393 13.7939 53.0015 13.7717 54.9879L13.7127 60.2719L0 60.1273L0.0590469 54.8434ZM11.7841 54.9868C11.8015 53.4374 11.3522 52.1413 10.4363 51.0986C9.52056 50.0426 8.36712 49.5073 6.97598 49.4926C5.58484 49.478 4.41971 49.9889 3.48059 51.0253C2.54162 52.0484 2.06348 53.3347 2.04617 54.8842L2.00377 58.6783L11.7417 58.781L11.7841 54.9868Z" fill="#25405D"/>
<path d="M48.2704 48.2251C50.0353 48.8614 52.8466 46.2196 54.5495 42.3244C56.2524 38.4293 56.2021 34.7558 54.4371 34.1195C52.6721 33.4832 49.8609 36.125 48.158 40.0202C46.4551 43.9153 46.5054 47.5888 48.2704 48.2251Z" fill="#25405D"/>
<path fill-rule="evenodd" clip-rule="evenodd" d="M50.8017 46.3598C51.8242 45.399 52.8864 43.8783 53.6997 42.0181C54.513 40.1578 54.8885 38.3896 54.8702 37.0536C54.8611 36.3843 54.7536 35.8663 54.5895 35.5075C54.4279 35.1542 54.2379 35.0056 54.0754 34.9469C53.9128 34.8883 53.6623 34.8782 53.2778 35.0346C52.8874 35.1935 52.418 35.5035 51.9057 35.9848C50.8833 36.9456 49.821 38.4663 49.0078 40.3265C48.1945 42.1868 47.8189 43.955 47.8372 45.291C47.8464 45.9603 47.9538 46.4783 48.118 46.8371C48.2796 47.1904 48.4695 47.339 48.6321 47.3977C48.7947 47.4563 49.0452 47.4664 49.4296 47.31C49.8201 47.1511 50.2895 46.8411 50.8017 46.3598ZM54.5495 42.3244C52.8466 46.2196 50.0353 48.8614 48.2704 48.2251C46.5054 47.5888 46.4551 43.9153 48.158 40.0202C49.8609 36.125 52.6721 33.4832 54.4371 34.1195C56.2021 34.7558 56.2524 38.4293 54.5495 42.3244Z" fill="#25405D"/>
<path fill-rule="evenodd" clip-rule="evenodd" d="M75.6481 42.0019L76.1655 43.6704L66.1713 46.9091L71.2316 54.7819L69.6448 55.7566L63.3628 45.9831L75.6481 42.0019Z" fill="#25405D"/>
<path fill-rule="evenodd" clip-rule="evenodd" d="M33.3943 43.3725C28.6385 54.2507 35.2263 66.9981 48.5272 71.7933C61.8294 76.589 76.3129 71.3982 81.0535 60.5546L82.7531 61.1673C77.5138 73.1516 61.7935 78.4917 47.8037 73.4481C33.8126 68.4041 26.4412 54.7765 31.6947 42.7598L33.3943 43.3725Z" fill="#25405D"/>
<path fill-rule="evenodd" clip-rule="evenodd" d="M30.1175 37.3039C29.7335 38.3601 29.8031 39.5227 30.3347 40.5564C30.8674 41.592 31.8231 42.4155 33.0144 42.845C34.2056 43.2745 35.5231 43.2705 36.693 42.8486C37.8606 42.4276 38.7895 41.6249 39.3077 40.6171L40.9582 41.3332C40.2104 42.7874 38.8852 43.9143 37.2719 44.496C35.6609 45.0769 33.8806 45.073 32.2909 44.4999C30.7011 43.9267 29.4027 42.8208 28.6692 41.3946C27.9345 39.9664 27.8214 38.321 28.3756 36.797L30.1175 37.3039Z" fill="#25405D"/>
<path fill-rule="evenodd" clip-rule="evenodd" d="M78.9359 54.9036C78.5518 55.9597 78.6214 57.1224 79.153 58.156C79.6857 59.1916 80.6415 60.0152 81.8327 60.4446C83.024 60.8741 84.3415 60.8701 85.5114 60.4483C86.679 60.0272 87.6079 59.2245 88.1261 58.2168L89.7766 58.9329C89.0288 60.387 87.7036 61.5139 86.0902 62.0957C84.4792 62.6766 82.699 62.6726 81.1092 62.0995C79.5195 61.5264 78.221 60.4204 77.4875 58.9942C76.7529 57.566 76.6398 55.9206 77.1939 54.3966L78.9359 54.9036Z" fill="#25405D"/>
</svg>
