<svg width="35" height="35" viewBox="0 0 35 35" fill="none" xmlns="http://www.w3.org/2000/svg">
<path fill-rule="evenodd" clip-rule="evenodd" d="M17.5 0C7.83502 0 0 7.83502 0 17.5C0 27.165 7.83502 35 17.5 35C27.165 35 35 27.165 35 17.5C35 7.83502 27.165 0 17.5 0ZM13.6524 8.22338C14.648 8.17808 14.9661 8.16699 17.5009 8.16699H17.498C20.0335 8.16699 20.3505 8.17808 21.3461 8.22338C22.3397 8.26888 23.0183 8.42619 23.6133 8.657C24.2277 8.89519 24.7469 9.21409 25.2661 9.73326C25.7853 10.252 26.1042 10.7728 26.3433 11.3866C26.5728 11.9801 26.7303 12.6583 26.7769 13.6519C26.8217 14.6475 26.8333 14.9656 26.8333 17.5004C26.8333 20.0352 26.8217 20.3526 26.7769 21.3481C26.7303 22.3414 26.5728 23.0198 26.3433 23.6134C26.1042 24.2271 25.7853 24.7478 25.2661 25.2666C24.7475 25.7858 24.2276 26.1055 23.6139 26.3438C23.02 26.5747 22.341 26.732 21.3474 26.7775C20.3518 26.8228 20.0347 26.8339 17.4997 26.8339C14.9651 26.8339 14.6472 26.8228 13.6516 26.7775C12.6582 26.732 11.9798 26.5747 11.3859 26.3438C10.7724 26.1055 10.2517 25.7858 9.73313 25.2666C9.21415 24.7478 8.89526 24.2271 8.65667 23.6132C8.42606 23.0198 8.26875 22.3416 8.22306 21.3479C8.17795 20.3524 8.16667 20.0352 8.16667 17.5004C8.16667 14.9656 8.17833 14.6473 8.22286 13.6517C8.26758 12.6585 8.42509 11.9801 8.65648 11.3864C8.89565 10.7728 9.21454 10.252 9.73371 9.73326C10.2525 9.21428 10.7732 8.89539 11.3871 8.657C11.9805 8.42619 12.6588 8.26888 13.6524 8.22338Z" fill="#FDF3F3"/>
<path fill-rule="evenodd" clip-rule="evenodd" d="M16.6635 9.84901C16.8261 9.84876 17.001 9.84884 17.1898 9.84892L17.5008 9.84901C19.9929 9.84901 20.2882 9.85796 21.2723 9.90268C22.1823 9.94429 22.6762 10.0963 23.0052 10.2241C23.4408 10.3933 23.7513 10.5955 24.0778 10.9222C24.4045 11.2488 24.6067 11.5599 24.7762 11.9955C24.904 12.3241 25.0562 12.818 25.0977 13.728C25.1424 14.7119 25.1521 15.0075 25.1521 17.4983C25.1521 19.9892 25.1424 20.2848 25.0977 21.2687C25.0561 22.1787 24.904 22.6726 24.7762 23.0012C24.6071 23.4367 24.4045 23.7469 24.0778 24.0734C23.7511 24.4 23.441 24.6022 23.0052 24.7714C22.6766 24.8998 22.1823 25.0514 21.2723 25.093C20.2884 25.1378 19.9929 25.1475 17.5008 25.1475C15.0086 25.1475 14.7132 25.1378 13.7293 25.093C12.8193 25.051 12.3254 24.899 11.9962 24.7712C11.5607 24.6021 11.2496 24.3998 10.9229 24.0732C10.5962 23.7465 10.394 23.4362 10.2245 23.0004C10.0967 22.6718 9.94445 22.1779 9.90303 21.2679C9.85831 20.284 9.84937 19.9884 9.84937 17.496C9.84937 15.0036 9.85831 14.7096 9.90303 13.7257C9.94464 12.8157 10.0967 12.3218 10.2245 11.9928C10.3936 11.5572 10.5962 11.2461 10.9229 10.9194C11.2496 10.5928 11.5607 10.3905 11.9962 10.221C12.3253 10.0927 12.8193 9.94099 13.7293 9.89918C14.5904 9.86029 14.924 9.84862 16.6635 9.84668V9.84901ZM22.4829 11.3988C21.8646 11.3988 21.3629 11.8999 21.3629 12.5184C21.3629 13.1368 21.8646 13.6385 22.4829 13.6385C23.1013 13.6385 23.603 13.1368 23.603 12.5184C23.603 11.9001 23.1013 11.3984 22.4829 11.3984V11.3988ZM12.7077 17.5001C12.7077 14.8531 14.8538 12.707 17.5008 12.707H17.5006C20.1476 12.707 22.2932 14.8531 22.2932 17.5001C22.2932 20.1471 20.1478 22.2923 17.5008 22.2923C14.8538 22.2923 12.7077 20.1471 12.7077 17.5001Z" fill="#FDF3F3"/>
<path fill-rule="evenodd" clip-rule="evenodd" d="M17.5008 14.3896C19.2189 14.3896 20.6119 15.7825 20.6119 17.5008C20.6119 19.2189 19.2189 20.6119 17.5008 20.6119C15.7825 20.6119 14.3896 19.2189 14.3896 17.5008C14.3896 15.7825 15.7825 14.3896 17.5008 14.3896V14.3896Z" fill="#FDF3F3"/>
</svg>
