<svg width="20" height="21" viewBox="0 0 20 21" fill="none" xmlns="http://www.w3.org/2000/svg">
<path fill-rule="evenodd" clip-rule="evenodd" d="M16.2939 10.9134C15.9541 11.5335 15.2943 11.9435 14.5446 11.9435H7.09736L5.99777 13.9435H17.9933V15.9436H5.99777C4.47834 15.9436 3.51869 14.3136 4.24842 12.9735L5.59792 10.5334L1.99926 2.94315H0V0.943085H3.26879L4.20844 2.94315H19.0029C19.7627 2.94315 20.2425 3.76318 19.8726 4.42321L16.2939 10.9134ZM17.3037 4.94255H5.1582L7.52733 9.94188H14.5447L17.3037 4.94255ZM5.99781 16.9436C4.89822 16.9436 4.00854 17.8435 4.00854 18.9433C4.00854 20.0432 4.89822 20.9431 5.99781 20.9431C7.0974 20.9431 7.99707 20.0432 7.99707 18.9433C7.99707 17.8435 7.0974 16.9436 5.99781 16.9436ZM14.0049 18.9433C14.0049 17.8435 14.8946 16.9436 15.9941 16.9436C17.0937 16.9436 17.9934 17.8435 17.9934 18.9433C17.9934 20.0432 17.0937 20.9431 15.9941 20.9431C14.8946 20.9431 14.0049 20.0432 14.0049 18.9433Z" fill="#25405D"/>
</svg>
