<svg width="24" height="24" viewBox="0 0 24 24" fill="none" xmlns="http://www.w3.org/2000/svg">
<path fill-rule="evenodd" clip-rule="evenodd" d="M18.2939 11.9703C17.9541 12.5904 17.2943 13.0004 16.5446 13.0004H9.09736L7.99777 15.0005H19.9933V17.0005H7.99777C6.47834 17.0005 5.51869 15.3705 6.24842 14.0304L7.59792 11.5903L3.99926 4.00007H2V2H5.26879L6.20844 4.00007H21.0029C21.7627 4.00007 22.2425 4.8201 21.8726 5.48012L18.2939 11.9703ZM19.3037 5.99946H7.1582L9.52733 10.9988H16.5447L19.3037 5.99946ZM7.99781 18.0005C6.89822 18.0005 6.00854 18.9004 6.00854 20.0002C6.00854 21.1001 6.89822 22 7.99781 22C9.0974 22 9.99707 21.1001 9.99707 20.0002C9.99707 18.9004 9.0974 18.0005 7.99781 18.0005ZM16.0049 20.0002C16.0049 18.9004 16.8946 18.0005 17.9941 18.0005C19.0937 18.0005 19.9934 18.9004 19.9934 20.0002C19.9934 21.1001 19.0937 22 17.9941 22C16.8946 22 16.0049 21.1001 16.0049 20.0002Z" fill="#25405D"/>
</svg>
